<!DOCTYPE svg PUBLIC "-//W3C//DTD SVG 1.1//EN" "http://www.w3.org/Graphics/SVG/1.1/DTD/svg11.dtd">
<!-- Uploaded to: SVG Repo, www.svgrepo.com, Transformed by: SVG Repo Mixer Tools -->
<svg width="64px" height="64px" viewBox="-2.4 -2.4 28.80 28.80" fill="none" xmlns="http://www.w3.org/2000/svg" stroke="#ffffff" data-darkreader-inline-stroke="" style="--darkreader-inline-stroke: #f8f5f2;">
<g id="SVGRepo_bgCarrier" stroke-width="0">
<rect x="-2.4" y="-2.4" width="28.80" height="28.80" rx="14.4" fill="#ffffff" strokewidth="0" data-darkreader-inline-fill="" style="--darkreader-inline-fill: #080b0c;"/>
</g>
<g id="SVGRepo_tracerCarrier" stroke-linecap="round" stroke-linejoin="round"/>
<g id="SVGRepo_iconCarrier"> <path d="M12 3V4M12 20V21M4 12H3M6.31412 6.31412L5.5 5.5M17.6859 6.31412L18.5 5.5M6.31412 17.69L5.5 18.5001M17.6859 17.69L18.5 18.5001M21 12H20M16 12C16 14.2091 14.2091 16 12 16C9.79086 16 8 14.2091 8 12C8 9.79086 9.79086 8 12 8C14.2091 8 16 9.79086 16 12Z" stroke="#fbff00" stroke-width="2" stroke-linecap="round" stroke-linejoin="round" data-darkreader-inline-stroke="" style="--darkreader-inline-stroke: #ffff0b;"/> </g>
</svg>